<svg width="25" height="24" viewBox="0 0 25 24" fill="none" xmlns="http://www.w3.org/2000/svg">
<path fill-rule="evenodd" clip-rule="evenodd" d="M12.8306 6C9.51713 6 6.83063 8.6865 6.83063 12C6.83063 15.3135 9.51713 18 12.8306 18C16.1441 18 18.8306 15.3135 18.8306 12C18.8306 8.6865 16.1441 6 12.8306 6ZM12.8306 15.75C10.7636 15.75 9.08063 14.067 9.08063 12C9.08063 9.9315 10.7636 8.25 12.8306 8.25C14.8976 8.25 16.5806 9.9315 16.5806 12C16.5806 14.067 14.8976 15.75 12.8306 15.75Z" fill="white"/>
<path d="M20.0801 5.55C20.0801 5.99155 19.7222 6.3495 19.2806 6.3495C18.8391 6.3495 18.4811 5.99155 18.4811 5.55C18.4811 5.10845 18.8391 4.7505 19.2806 4.7505C19.7222 4.7505 20.0801 5.10845 20.0801 5.55Z" fill="white"/>
<path fill-rule="evenodd" clip-rule="evenodd" d="M17.3306 0H8.33063C4.18913 0 0.830627 3.3585 0.830627 7.5V16.5C0.830627 20.6415 4.18913 24 8.33063 24H17.3306C21.4721 24 24.8306 20.6415 24.8306 16.5V7.5C24.8306 3.3585 21.4721 0 17.3306 0ZM22.5806 16.5C22.5806 19.395 20.2256 21.75 17.3306 21.75H8.33063C5.43563 21.75 3.08063 19.395 3.08063 16.5V7.5C3.08063 4.605 5.43563 2.25 8.33063 2.25H17.3306C20.2256 2.25 22.5806 4.605 22.5806 7.5V16.5Z" fill="white"/>
</svg>
