<svg width="25" height="24" viewBox="0 0 25 24" fill="none" xmlns="http://www.w3.org/2000/svg">
<path d="M24.8306 14.7144V24H19.5509V15.3363C19.5509 13.1599 18.7873 11.6746 16.8762 11.6746C15.4174 11.6746 14.5492 12.6756 14.1673 13.6438C14.028 13.99 13.9921 14.4718 13.9921 14.9564V24H8.71065C8.71065 24 8.78178 9.3265 8.71065 7.80621H13.9916V10.1016C13.9809 10.1188 13.967 10.1373 13.9569 10.1539H13.9916V10.1016C14.6932 8.99978 15.9463 7.42577 18.7509 7.42577C22.2257 7.42572 24.8306 9.74027 24.8306 14.7144ZM3.18602 0C1.37923 0 0.197449 1.20834 0.197449 2.79736C0.197449 4.35175 1.34504 5.59676 3.11592 5.59676H3.1512C4.99297 5.59676 6.13839 4.35198 6.13839 2.79736C6.10368 1.20834 4.99297 0 3.18602 0ZM0.511121 24H5.79058V7.80621H0.511121V24Z" fill="white"/>
</svg>
