<svg width="20" height="15" viewBox="0 0 20 15" fill="none" xmlns="http://www.w3.org/2000/svg">
<path fill-rule="evenodd" clip-rule="evenodd" d="M2.44568 0H17.5584C18.9075 0 20.0041 1.08483 20 2.41436V12.5897C20 13.9193 18.9034 15 17.5543 15H2.44568C1.09663 15 0 13.9193 0 12.5897V2.41028C0 1.08075 1.09663 0 2.44568 0ZM17.5042 3.0506L12.6128 7.3736L17.5249 11.9699C17.7484 12.1778 17.7566 12.5286 17.5456 12.7488C17.4338 12.863 17.289 12.9201 17.14 12.9201C17.0035 12.9201 16.8628 12.8712 16.7552 12.7692L11.781 8.11178L10.3865 9.34342C10.283 9.43723 10.1465 9.48617 10.014 9.48617C9.88161 9.48617 9.74918 9.4413 9.64159 9.3475L8.28425 8.15256L3.28115 12.7651C3.17356 12.863 3.037 12.9119 2.90044 12.9119C2.75146 12.9119 2.60249 12.8508 2.49075 12.7366C2.27971 12.5123 2.29212 12.1656 2.51558 11.9576L7.4442 7.41031L2.49489 3.0506C2.26315 2.84669 2.24246 2.50003 2.44937 2.27165C2.65628 2.04326 3.00803 2.02287 3.23977 2.22679L8.59462 6.94946C8.62773 6.97393 8.65669 6.9984 8.68566 7.02695C8.68566 7.03103 8.6898 7.03511 8.69394 7.03918L10.0099 8.19742L16.7552 2.23086C16.9869 2.02695 17.3387 2.04734 17.5456 2.27165C17.7525 2.50003 17.7318 2.84669 17.5042 3.0506Z" fill="#80D74A"/>
</svg>
