<svg width="16" height="15" viewBox="0 0 16 15" fill="none" xmlns="http://www.w3.org/2000/svg">
<path d="M15.3957 9.19649V15H12.0959V9.58517C12.0959 8.22492 11.6187 7.29661 10.4242 7.29661C9.51245 7.29661 8.96984 7.92222 8.73113 8.5274C8.64408 8.74375 8.62167 9.04488 8.62167 9.34773V15H5.32075C5.32075 15 5.36521 5.82906 5.32075 4.87888H8.62135V6.31351C8.61465 6.32424 8.60595 6.33581 8.59965 6.34621H8.62135V6.31351C9.05986 5.62486 9.84301 4.64111 11.5959 4.64111C13.7677 4.64107 15.3957 6.08767 15.3957 9.19649ZM1.86785 0C0.738616 0 0 0.755215 0 1.74835C0 2.71984 0.717246 3.49798 1.82404 3.49798H1.84609C2.9972 3.49798 3.71309 2.71999 3.71309 1.74835C3.6914 0.755215 2.9972 0 1.86785 0ZM0.196045 15H3.49571V4.87888H0.196045V15Z" fill="#80D74A"/>
</svg>
