<svg width="19" height="19" viewBox="0 0 19 19" fill="none" xmlns="http://www.w3.org/2000/svg">
<path d="M16.1279 2.9098C17.6462 4.448 18.6343 6.38093 18.9917 8.50511C19.0439 8.80218 18.8431 9.08703 18.5499 9.13179C18.5467 9.1322 18.5435 9.13261 18.5403 9.13302C18.512 9.13664 18.4864 9.13993 18.4575 9.13993C18.1964 9.13993 17.9675 8.95274 17.9233 8.68417C17.606 6.78786 16.7223 5.0584 15.3647 3.68297C14.0071 2.31161 12.3 1.41229 10.4283 1.09081C10.1311 1.03791 9.93425 0.75713 9.98245 0.456C10.0347 0.15894 10.3118 -0.0445259 10.605 0.00837526C12.7017 0.370545 14.6096 1.3716 16.1279 2.9098Z" fill="#80D74A"/>
<path d="M15.0266 11.6628C14.637 11.2518 14.1671 11.0321 13.669 11.0321C13.175 11.0321 12.701 11.2477 12.2953 11.6587L11.0261 12.9406C10.9571 12.9029 10.888 12.867 10.8201 12.8317C10.7853 12.8137 10.7508 12.7957 10.7168 12.7778C10.5722 12.7045 10.4356 12.6354 10.3192 12.5621C9.13024 11.7971 8.04977 10.8001 7.01348 9.51013C6.5114 8.86718 6.17401 8.32596 5.92899 7.7766C6.22657 7.50085 6.50448 7.21514 6.77457 6.93747L6.86085 6.8488C6.91708 6.79183 6.97332 6.73384 7.02955 6.67585C7.08578 6.61786 7.14201 6.55988 7.19825 6.5029C8.04174 5.64835 8.04174 4.54149 7.19825 3.68694L6.10171 2.57601C5.9772 2.44987 5.84866 2.31964 5.72816 2.18943C5.48717 1.93713 5.23412 1.67669 4.97304 1.43253C4.58343 1.04188 4.1175 0.834342 3.62747 0.834342C3.13744 0.834342 2.66348 1.04188 2.26182 1.43253L2.25379 1.44067L0.888135 2.83645C0.374007 3.35732 0.0807937 3.99214 0.0165278 4.72868C-0.0798711 5.91692 0.265558 7.02378 0.530655 7.74812C1.18135 9.52641 2.15337 11.1745 3.60337 12.9406C5.36265 15.0688 7.47941 16.7495 9.89742 17.9336C10.8212 18.3772 12.0543 18.9021 13.432 18.9916C13.5164 18.9957 13.6048 18.9998 13.6851 18.9998C14.6129 18.9998 15.3922 18.662 16.0027 17.9906C16.0047 17.9865 16.0077 17.9835 16.0107 17.9804C16.0137 17.9774 16.0167 17.9743 16.0187 17.9702C16.2121 17.7329 16.4331 17.5164 16.6656 17.2886L16.7217 17.2337C16.8944 17.0669 17.0711 16.8919 17.2438 16.7088C17.6415 16.2896 17.8503 15.8013 17.8503 15.3008C17.8503 14.7962 17.6374 14.3119 17.2318 13.905L15.0266 11.6628Z" fill="#80D74A"/>
<path d="M10.2677 4.58642C11.32 4.76547 12.276 5.27007 13.0391 6.04324C13.8023 6.81641 14.2963 7.78491 14.4771 8.85107C14.5212 9.11965 14.7502 9.30684 15.0113 9.30684C15.0402 9.30684 15.0658 9.30355 15.094 9.29993L15.1037 9.2987C15.4009 9.24986 15.5977 8.96501 15.5495 8.66388C15.3326 7.37391 14.7301 6.19788 13.8103 5.266C12.8905 4.33413 11.7297 3.72373 10.4564 3.50399C10.1592 3.45515 9.88206 3.65455 9.82984 3.95161C9.77762 4.24867 9.97042 4.53759 10.2677 4.58642Z" fill="#80D74A"/>
</svg>
