<svg width="720" height="246" fill="none" xmlns="http://www.w3.org/2000/svg"><path d="M136.354 126.386c0 1.337-.46 2.549-1.38 3.636a34.679 34.679 0 00-2.382 3.134c-1.17.585-2.299.92-3.385 1.003-1.003.168-2.09.46-3.26.878-.418.084-.878.376-1.379.878-.669-.084-1.338-.376-2.006-.878a7.019 7.019 0 00-2.007-.878c-.919-.334-2.131-.543-3.636-.626-1.421-.084-2.466-.502-3.134-1.254-1.17-1.171-2.174-2.717-3.009-4.639a43.851 43.851 0 01-1.881-6.144 91.924 91.924 0 01-1.003-6.395c-.167-2.173-.251-4.054-.251-5.642 0-2.675.167-5.35.502-8.024a58 58 0 011.504-7.774v-.627-1.003a4.64 4.64 0 00.126-1.129c0-.25-.042-.501-.126-.752 0-.25-.125-.46-.376-.627a42.981 42.981 0 002.382-8.526c.502-2.925.878-5.851 1.129-8.777.334-3.009.668-5.976 1.003-8.902a74.181 74.181 0 011.755-8.776 77.252 77.252 0 01-.251-1.63v-1.63c0-1.505.168-2.968.502-4.389.334-1.505.543-3.05.627-4.639a4.577 4.577 0 000-1.505 12.34 12.34 0 01-.126-1.755c0-3.678.168-7.272.502-10.783.418-3.51.627-7.063.627-10.657 0-1.923-.167-3.762-.502-5.517a40.91 40.91 0 01-.376-5.517c0-.836.042-1.63.126-2.382a5.157 5.157 0 01.752-2.257C119.26.627 121.433 0 123.941 0c1.839 0 3.427.502 4.764 1.505-.083.167-.125.418-.125.752 0 .418.042.794.125 1.128.084.335.126.71.126 1.129v.501c0 .167-.042.335-.126.502a8.906 8.906 0 011.129 3.26c.251 1.086.376 2.215.376 3.385a42.79 42.79 0 01-.125 3.26 37.582 37.582 0 00-.126 3.135v4.513c.084 1.505.126 3.01.126 4.514 0 4.012-.209 7.983-.627 11.912a260.743 260.743 0 00-.753 11.785 56.844 56.844 0 01-1.379 10.031 78.426 78.426 0 00-1.379 9.905 16.083 16.083 0 00-.126 2.007c.084.585.126 1.253.126 2.006 0 1.922-.376 3.845-1.129 5.767-.752 1.84-1.128 3.803-1.128 5.893 0 1.003.167 1.88.502 2.633-.502 1.338-.962 2.926-1.38 4.765a413.491 413.491 0 00-1.003 5.767 136.004 136.004 0 00-.627 5.768c-.167 1.839-.25 3.469-.25 4.89 0 2.006.25 4.054.752 6.144a16.49 16.49 0 002.508 5.516c.835.251 1.838.377 3.009.377 1.17 0 2.34.041 3.51.125 1.171.084 2.257.293 3.26.627 1.003.334 1.756 1.003 2.257 2.006.084.167.126.334.126.502v.376zM242.302 97.548c0 .836-.251 1.546-.752 2.131-.418.502-.962.961-1.63 1.379a13.94 13.94 0 01-1.881 1.129 7.705 7.705 0 00-1.63 1.254 3.144 3.144 0 00-.752 1.254c-.084.417-.293.71-.627.877-.502.418-1.045.669-1.63.752-.585.084-1.212.209-1.881.377-.585.083-1.17.25-1.755.501-.585.167-1.087.543-1.505 1.129a177.61 177.61 0 00-11.66 1.63 66.587 66.587 0 01-11.661 1.003c-.752 0-1.588.083-2.508.25-.836.084-1.63.168-2.382.251a110.9 110.9 0 01-5.266.376 105.773 105.773 0 01-12.413-.125 67.196 67.196 0 01-7.147-1.128 7.523 7.523 0 00-2.006-1.004 85.42 85.42 0 00-2.382-.752 16.234 16.234 0 01-2.132-.878 3.277 3.277 0 01-1.504-1.504c-1.254-.084-2.383-.334-3.386-.752a26.103 26.103 0 01-2.633-1.38 58.556 58.556 0 00-2.382-1.755c-.836-.585-1.797-1.087-2.884-1.505a52.243 52.243 0 00-2.633-3.385 10.347 10.347 0 00-3.134-2.884 25.107 25.107 0 00-1.254-4.764 76.057 76.057 0 00-1.63-4.64 49.831 49.831 0 01-1.254-4.764 19.13 19.13 0 01-.627-4.89c0-1.17.167-2.591.502-4.263a54.688 54.688 0 011.254-5.015 37.18 37.18 0 012.006-4.89c.752-1.505 1.504-2.717 2.257-3.636.25-.251.543-.46.877-.627.335-.167.627-.418.878-.752.752-.836 1.546-1.505 2.382-2.007a44.165 44.165 0 002.633-2.006c.335-.334.585-.71.753-1.128.25-.418.585-.794 1.003-1.129.25-.167.585-.209 1.003-.125.501.084.919 0 1.253-.25.335-.252.502-.544.502-.878 0-.335.125-.627.376-.878.084-.084.334-.084.752 0h.753c.585 0 1.254-.376 2.006-1.128.752-.836 1.379-1.38 1.881-1.63a4.942 4.942 0 011.755-.627 11.022 11.022 0 001.881-.753c.919-.501 1.797-.877 2.633-1.128.919-.334 1.839-.71 2.758-1.129.502-.167.961-.46 1.379-.877.418-.418.836-.71 1.254-.878.752-.25 1.547-.418 2.382-.502.92-.167 1.756-.292 2.508-.376.836-.167 1.63-.334 2.382-.501a6.013 6.013 0 002.257-1.254h1.003c1.505 0 2.968-.209 4.389-.627a15.474 15.474 0 014.388-.627c.418 0 1.045.084 1.881.251.669-.418 1.421-.627 2.257-.627 1.421 0 2.842.376 4.263 1.128 1.421.67 2.884 1.004 4.388 1.004h.752c.335 0 .669-.042 1.003-.126.92.92 2.007 1.421 3.26 1.505 1.338.083 2.466.46 3.386 1.128a5.58 5.58 0 011.379 1.756c.418.668.752 1.379 1.003 2.131l.752 2.257a7.518 7.518 0 001.003 2.006c-.418 3.01-1.671 5.433-3.761 7.272-2.006 1.756-4.556 2.633-7.648 2.633-1.171 0-2.174-.125-3.01-.376a52.287 52.287 0 01-2.131-1.003 38.39 38.39 0 00-1.881-1.003 8.953 8.953 0 00-2.257-.752 15.149 15.149 0 001.756-5.392c-.92-.418-1.839-.71-2.759-.877a9.77 9.77 0 01-2.633-.878 48.741 48.741 0 01-6.645 1.254c-2.09.167-4.054 1.045-5.893 2.633a44.011 44.011 0 00-1.379-.251 6.38 6.38 0 00-1.254-.125c-.502 0-1.505.376-3.009 1.128a84.88 84.88 0 00-4.89 2.382c-1.672.92-3.302 1.84-4.89 2.759-1.505.92-2.55 1.546-3.135 1.88a7.606 7.606 0 00-1.755 1.505 37.024 37.024 0 00-1.505 1.88l-1.504 1.756c-.502.502-1.129.878-1.881 1.129-.167.92-.46 1.713-.878 2.382a85.44 85.44 0 01-1.379 2.131 41.452 41.452 0 01-.501 4.514 40.644 40.644 0 00-.251 4.514v1.63c0 .501.083.961.251 1.38a14.004 14.004 0 012.006 3.635c.585 1.338 1.546 2.257 2.883 2.759.084.334.042.543-.125.627-.083.083-.167.292-.251.626.502.92 1.129 1.672 1.881 2.257a42.554 42.554 0 012.508 1.63 23.87 23.87 0 012.382 1.63c.752.585 1.337 1.338 1.755 2.257 1.254 0 2.424.21 3.511.627 1.17.418 2.257.878 3.26 1.379 1.087.502 2.09.962 3.009 1.38 1.003.418 2.006.626 3.009.626.92 0 1.756-.125 2.508-.376a45.782 45.782 0 006.52 1.505c2.257.251 4.514.376 6.771.376a68.79 68.79 0 008.275-.501c2.758-.335 5.517-.627 8.275-.878a17.569 17.569 0 012.884-.251c.919 0 1.839-.083 2.758-.251 1.171-.167 2.257-.71 3.26-1.63 1.087-.92 2.132-1.588 3.135-2.006.919.585 2.006.878 3.26.878 1.421 0 2.8-.21 4.137-.627a11.696 11.696 0 014.138-.752h.627z" fill="#fff"/><path d="M334.584 110.964c-.251 1.17-.794 2.131-1.63 2.883-.753.669-1.672 1.212-2.759 1.63a15.487 15.487 0 01-3.385.878c-1.087.084-2.09.125-3.009.125h-1.254a4.694 4.694 0 00-1.129-.125c-.418 0-.626.209-.626.627 0 .418-.209.711-.627.878a7.114 7.114 0 00-1.254-.376 6.35 6.35 0 00-1.254-.126c-.585 0-1.17.042-1.755.126a9.206 9.206 0 01-1.505.125c-.669 0-1.17-.084-1.505-.251l-.752-.501a4.962 4.962 0 00-.627-.753c-.167-.25-.46-.459-.877-.627-.586-.25-1.087-.292-1.505-.125-.334.167-.878-.084-1.63-.752a13.108 13.108 0 01-2.633-3.009 167.528 167.528 0 01-2.006-3.887 92.8 92.8 0 00-2.132-4.013 16.065 16.065 0 00-2.633-3.51h-1.003c-1.504 0-2.549.627-3.134 1.88-.418-.25-.836-.543-1.254-.877a5.305 5.305 0 00-1.379-1.003 63.382 63.382 0 01-6.019 1.504 31.881 31.881 0 01-6.269.627h-1.755a5.925 5.925 0 01-1.63-.251 9.862 9.862 0 00-2.257 1.254c-.669.418-1.421.627-2.257.627-.502 0-1.087-.167-1.755-.501-.502 0-.753.209-.753.627.084.418-.167.627-.752.627h-1.128c-1.171 0-2.341.041-3.511.125a44.471 44.471 0 01-3.385.125c-1.589 0-3.219-.209-4.89-.627a2.63 2.63 0 01-1.38.377c-.334.167-.585.459-.752.877l-.501 1.003c-.168.251-.418.502-.753.753-.25.167-.627.209-1.128.125-.167 1.003-.585 1.797-1.254 2.382-.669.585-1.003 1.463-1.003 2.633-.92.502-1.672 1.129-2.257 1.881a58.556 58.556 0 00-1.755 2.382 26.2 26.2 0 01-1.881 2.383c-.585.752-1.337 1.337-2.257 1.755-.418.501-.543 1.295-.376 2.382-.92.752-2.048 1.421-3.385 2.006-1.338.585-2.592.878-3.762.878-2.424 0-4.096-1.296-5.015-3.887 0-.836.083-1.713.251-2.633.083-1.003.25-1.922.501-2.758.251-.92.627-1.714 1.129-2.383.501-.752 1.212-1.295 2.131-1.63 0-.752-.251-1.253-.752-1.504-.502-.335-.711-.878-.627-1.63 2.257-1.087 4.221-2.508 5.893-4.263a46.565 46.565 0 004.514-5.517l4.263-6.018a32.832 32.832 0 014.764-5.392v-2.633c2.508-2.675 4.138-5.684 4.89-9.027.92-.168 1.505-.586 1.755-1.254.335-.669.502-1.463.502-2.382.418 0 .669-.168.752-.502.167-.418.544-.543 1.129-.376a42.17 42.17 0 012.507-5.517l2.759-5.015a44.171 44.171 0 002.382-5.392c.752-1.839 1.296-3.887 1.63-6.144 1.17-.083 1.797-.627 1.881-1.63.167-1.086.334-2.047.501-2.883a10.604 10.604 0 002.759-4.138 48.547 48.547 0 001.755-4.89 92.913 92.913 0 011.63-5.14c.669-1.756 1.588-3.302 2.758-4.64v-.376c0-.418-.167-.669-.501-.752-.334-.167-.502-.46-.502-.878.084-.083.126-.167.126-.25 1.003-.419 1.755-1.087 2.257-2.007.501-1.003 1.254-1.713 2.257-2.131 1.755 1.42 3.301 2.298 4.639 2.633 1.337.25 3.093.46 5.266.627 1.086 1.17 1.672 2.59 1.755 4.263.167 1.588.46 3.176.878 4.764a219.01 219.01 0 002.131 7.9 47.934 47.934 0 011.881 7.773 16.67 16.67 0 001.379 4.514 16.722 16.722 0 011.38 4.388c.167 1.17.167 2.508 0 4.013-.168 1.42 0 2.674.501 3.761l.878 2.006c.418.92.752 1.88 1.003 2.884.334 1.003.627 2.006.877 3.01a92.138 92.138 0 011.756 8.149c.585 2.842 1.463 5.433 2.633 7.774.418.836 1.045 1.42 1.881 1.755.919.334 1.922.585 3.009.752 1.086.084 2.131.126 3.134.126a36.901 36.901 0 012.759-.126h1.254a4.73 4.73 0 011.504.251c.335.669.502 1.254.502 1.755 0 1.004-.335 1.798-1.003 2.383-.669.585-1.003 1.254-1.003 2.006 0 .418.167.877.501 1.38-.334-.085-.836-.126-1.504-.126-1.923 0-3.804.334-5.643 1.003.669 1.421 1.547 2.633 2.633 3.636a58.274 58.274 0 003.636 2.633c.836-.669 1.714-1.003 2.633-1.003 1.004 0 1.923.251 2.759.752a6.89 6.89 0 002.884.627c.752 0 1.295-.125 1.63-.376a10.987 10.987 0 011.63 2.382 9.652 9.652 0 001.63 2.132zm-39.245-20.062c-.167-1.42-.46-2.424-.878-3.009-.334-.668-.627-1.463-.878-2.382a24.979 24.979 0 01-.752-3.761 29.068 29.068 0 00-.501-3.887 157.337 157.337 0 00-2.006-8.526 56.07 56.07 0 00-2.634-8.276c.335-.501.502-.96.502-1.379v-.376c-.752-.836-1.296-1.839-1.63-3.01a213.535 213.535 0 00-1.003-3.635c-.251-1.254-.627-2.383-1.128-3.386-.418-1.086-1.129-1.964-2.132-2.633-.251.502-.376 1.087-.376 1.756 0 .585.042 1.128.125 1.63a5.13 5.13 0 01.251 1.63c-.836.418-1.463 1.086-1.881 2.006-.334.836-.919 1.504-1.755 2.006a35.144 35.144 0 01-2.884 7.648 150.359 150.359 0 01-4.012 7.022 193.914 193.914 0 00-3.887 7.147 38.102 38.102 0 00-3.009 7.397c-1.087.752-1.839 1.714-2.257 2.884a12.74 12.74 0 00-.502 3.51 6.279 6.279 0 002.508.753h2.884c.919 0 1.797.084 2.633.25.836.168 1.588.586 2.257 1.254a15.38 15.38 0 013.511-.626c1.337-.168 2.424-.544 3.259-1.129 1.672.585 3.469.878 5.392.878 1.003 0 1.964-.084 2.884-.251a29.244 29.244 0 002.884-.627c.752.167 1.337.46 1.755.878.418.334 1.045.46 1.881.376.418-.334.668-.669.752-1.003.084-.418.292-.794.627-1.129zM491.437 98.3c-.167 1.254-.627 2.215-1.379 2.884a13.977 13.977 0 01-2.382 1.881 6.35 6.35 0 00-1.254-.126 4.686 4.686 0 00-1.128-.125c-2.592-.084-5.058.251-7.398 1.003a39.087 39.087 0 01-7.021 1.63c-.836.167-1.63.251-2.383.251-.668-.084-1.379-.042-2.131.125-2.675.418-5.517.752-8.526 1.003-3.009.251-6.019.585-9.028 1.003-3.009.334-5.976.794-8.902 1.379-2.842.502-5.517 1.254-8.024 2.257l-.753-.501a1.201 1.201 0 00-.877-.376c-.836 0-1.63.125-2.383.376a5.238 5.238 0 01-2.257.25c-.835.502-1.755.878-2.758 1.129-.919.167-1.881.334-2.884.501-.919.084-1.839.251-2.758.502-.92.251-1.797.71-2.633 1.379-.669-.334-1.505-.501-2.508-.501-.919-.084-1.546-.418-1.881-1.003a19.261 19.261 0 01-6.143 1.755c-2.09.251-4.222.334-6.395.251-1.421-.084-3.051-.293-4.89-.627a44.488 44.488 0 01-5.517-1.379 41.413 41.413 0 01-5.14-2.257c-1.589-.92-2.801-2.006-3.636-3.26a8.235 8.235 0 01-1.254-2.759c-.251-1.003-.836-1.755-1.756-2.257.251-1.922.544-3.803.878-5.642.334-1.839.669-3.72 1.003-5.642a60.831 60.831 0 009.028-9.53 21.571 21.571 0 004.388-2.757c1.421-1.087 2.8-2.174 4.138-3.26 1.421-1.17 2.8-2.3 4.137-3.386a31.804 31.804 0 014.514-2.884c.251-.585.585-1.044 1.003-1.379a17.64 17.64 0 011.505-1.128c.501-.418.961-.836 1.379-1.254.418-.502.71-1.087.878-1.755a29.041 29.041 0 007.648-6.646c2.173-2.675 3.594-5.684 4.263-9.027a10.526 10.526 0 00-4.89-2.257 38.009 38.009 0 00-5.517-.878 55.285 55.285 0 00-5.266 0 39.018 39.018 0 01-5.391-.125 26.12 26.12 0 01-5.768 1.128l-5.768.502a34.073 34.073 0 00-5.767.752c-1.839.334-3.636 1.003-5.392 2.006-.334 0-.668-.042-1.003-.125a2.772 2.772 0 00-.877-.126c-2.675-.083-5.183.46-7.523 1.63a540.203 540.203 0 00-6.896 3.26c-.168.335-.251.585-.251.753 0 .501.083 1.003.251 1.504.25.418.376.878.376 1.38-.084.083-.126.167-.126.25 0 .084-.041.167-.125.25a4.5 4.5 0 01-.376 1.13c-.084.334-.209.71-.376 1.128-.92 2.675-1.421 5.308-1.505 7.899a82.13 82.13 0 000 6.394c.084 2.09.084 4.222 0 6.395-.167 2.675-.585 5.182-1.254 7.523.418 2.006.794 4.138 1.129 6.394a89.058 89.058 0 001.254 6.52 79.596 79.596 0 001.755 6.395 30.95 30.95 0 002.884 5.767c-.084.168-.042.293.125.377.167.083.335.125.502.125h1.003c.418 0 .585.167.501.502.167.25.293.501.376.752.084.167.251.334.502.501.167.251.167.585 0 1.003-.084 1.672-.502 3.219-1.254 4.64a12.465 12.465 0 00-1.379 4.639c-1.003.25-1.923.376-2.759.376-1.421-.084-2.674-.502-3.761-1.254a14.111 14.111 0 01-3.009-2.508 84.301 84.301 0 01-2.633-3.009 14.378 14.378 0 00-2.759-2.758 191.517 191.517 0 01-1.755-7.774c-.502-2.842-1.379-5.266-2.633-7.272.334-.752.502-1.672.502-2.759a15.984 15.984 0 00-.502-4.89 16.892 16.892 0 01-.251-5.015c0-.92.084-1.839.251-2.758.251-.92.418-1.84.502-2.759.083-1.42-.084-2.8-.502-4.137a13.654 13.654 0 01-.376-4.138c.083-.669.209-1.295.376-1.88a6.018 6.018 0 011.003-1.756c-.418-1.003-.543-1.964-.376-2.884.083-1.42.251-2.758.501-4.012a29.03 29.03 0 00.502-3.761c0-.67-.042-1.296-.125-1.881a12.425 12.425 0 00-.377-1.881l-1.128-.376a3.34 3.34 0 00-1.505.376c-.418.25-.794.543-1.128.878l-.878.877c-.25.168-.501.251-.752.251h-.627a1.112 1.112 0 00-.501-.125c-.168 0-.502.167-1.004.501-.417.335-.961.71-1.63 1.129-.585.334-1.17.71-1.755 1.128-.585.335-1.045.544-1.379.627-.92-.167-1.672-.46-2.257-.878a22.295 22.295 0 00-1.505-1.379 6.432 6.432 0 00-1.379-1.254c-.501-.418-1.128-.585-1.88-.501a3.59 3.59 0 01-.377-1.63 6.219 6.219 0 010-1.755v-2.007a7.23 7.23 0 012.383-2.633 13.967 13.967 0 013.009-1.88l3.26-1.505a14.016 14.016 0 003.009-1.88h1.128c1.505.083 2.801-.21 3.887-.878a22.579 22.579 0 003.26-2.257l3.009-2.759a12.747 12.747 0 013.511-2.131c.92.418 1.881.794 2.884 1.128 1.003.251 2.048.418 3.134.502 1.087 0 2.216-.167 3.386-.502 1.17-.334 2.09-.961 2.758-1.88.418.167.753.292 1.003.376h1.129a9.743 9.743 0 003.761-.502 29.079 29.079 0 003.636-1.755c1.672.083 3.302 0 4.89-.251 1.672-.334 3.302-.669 4.89-1.003a121.97 121.97 0 014.89-.878 20.307 20.307 0 015.015-.376 33.276 33.276 0 008.15-.752 29.584 29.584 0 018.15-.627c1.923.084 3.803.25 5.642.501 1.923.168 3.845.21 5.768.126 1.087.501 2.048.961 2.884 1.379.919.334 2.048.418 3.385.25 2.675 2.258 5.099 4.89 7.272 7.9v2.131a21.607 21.607 0 01-1.003 5.643 49.833 49.833 0 01-2.131 5.517 75.236 75.236 0 01-2.508 5.265 145.64 145.64 0 00-2.633 5.016 2549.142 2549.142 0 01-16.3 14.67 339.174 339.174 0 01-16.801 14.043 8.958 8.958 0 01-.752 2.256 8.83 8.83 0 00-.502 2.132c0 .418.042.752.126 1.003.585.167 1.086.501 1.504 1.003.502.418.669 1.003.502 1.755h1.128c.418 0 .627.168.627.502l2.006.125c3.177.167 6.353.084 9.529-.251 3.177-.334 6.353-.71 9.529-1.128 3.26-.418 6.478-.794 9.655-1.128a91.428 91.428 0 019.529-.753c.752-.25 1.546-.46 2.382-.627a5.516 5.516 0 002.257-1.003h.376c.585 0 1.003.168 1.254.502.334.334.794.543 1.379.627.418 0 .836-.084 1.254-.251a9.893 9.893 0 011.505-.376 17.406 17.406 0 013.636-.627 55.681 55.681 0 003.887-.376c4.848-.418 9.654-.669 14.419-.753a76.166 76.166 0 0014.293-1.88c.418.585 1.003 1.003 1.756 1.254.752.167 1.546.376 2.382.626.836.168 1.588.377 2.257.627.752.251 1.254.753 1.504 1.505z" fill="#fff"/><path d="M535.196 47.52a5.316 5.316 0 00-.878 2.508c-.083.92-.125 1.755-.125 2.507v3.01c.083.919.125 1.838.125 2.758v1.88a7.942 7.942 0 01-.752 1.756 7.945 7.945 0 00-.752 1.755c-1.171 3.093-1.756 6.186-1.756 9.279v.25a44.205 44.205 0 01-1.254 2.759l-1.003 2.508a11.012 11.012 0 00-.752 2.507c-.167.836-.209 1.84-.125 3.01a31.947 31.947 0 01-4.639 8.024 167.214 167.214 0 00-5.643 7.272 21.21 21.21 0 00-4.89 2.633 41.61 41.61 0 00-4.137 3.636 84.266 84.266 0 00-7.649 2.884 24.182 24.182 0 00-6.77 4.388 47.058 47.058 0 00-4.765.753 23.155 23.155 0 00-4.639 1.504h-1.505c-.752 0-1.295-.167-1.63-.501a12.75 12.75 0 01-3.385 1.254c-1.17.167-2.34.25-3.511.25-1.504 0-3.009-.083-4.513-.25a465.283 465.283 0 00-4.389-.753c-.836-1.17-2.006-2.048-3.51-2.633a98.082 98.082 0 01-4.013-1.88c-2.424-3.344-4.179-6.562-5.266-9.655a281.516 281.516 0 01-3.385-10.658c.167-1.17.46-2.298.878-3.385.418-1.17.585-2.424.501-3.761 1.505-4.347 3.469-8.276 5.893-11.786a81.852 81.852 0 018.526-10.282c0-.501.084-.92.251-1.254.251-.334.292-.835.125-1.504.084.084.251.125.502.125.668 0 1.086-.167 1.254-.501.167-.418.209-.878.125-1.38a44.937 44.937 0 008.15-6.645 35.114 35.114 0 018.526-6.269 4.163 4.163 0 011.254-1.88 5.58 5.58 0 001.379-1.756c2.675-.752 5.099-1.88 7.272-3.385a51.17 51.17 0 016.896-4.013c1.338-.752 2.591-1.253 3.762-1.504 1.253-.334 2.591-.669 4.012-1.003.501-.167.961-.293 1.379-.376a7.046 7.046 0 011.379-.126c1.505 0 2.968.293 4.389.878 1.421.502 2.883.752 4.388.752h1.003l1.003-.25c1.421 1.755 3.218 3.092 5.392 4.012.501 1.254 1.086 2.34 1.755 3.26L531.936 41a14.722 14.722 0 012.006 2.884c.669 1.003 1.087 2.215 1.254 3.636zm-12.538 6.52a4.64 4.64 0 00-.126-1.129c-.836-.25-1.63-.585-2.382-1.003-.752-.418-1.588-.627-2.508-.627-.585 0-1.17.126-1.755.377-.084-.586-.334-1.003-.752-1.254-.335-.25-.753-.46-1.254-.627a3.903 3.903 0 00-1.379-.502 3.35 3.35 0 01-1.129-.752 20.783 20.783 0 00-.878-2.006c-.25-.752-.752-1.296-1.504-1.63-.752.752-1.63 1.38-2.633 1.88a121.79 121.79 0 01-3.135 1.255c-1.003.418-2.006.919-3.009 1.504a9.7 9.7 0 00-2.382 2.132h-2.257a5.237 5.237 0 01-2.132 2.131c-.919.418-1.713 1.045-2.382 1.88a18.434 18.434 0 00-3.761 2.509 53.11 53.11 0 00-3.26 3.009 111.983 111.983 0 00-3.26 3.134 27.83 27.83 0 01-3.26 3.01c-1.087 2.34-2.299 4.388-3.636 6.143a113.173 113.173 0 00-3.636 5.14 37.113 37.113 0 00-2.884 5.768c-.752 2.007-1.129 4.514-1.129 7.523v1.254c0 .418.042.836.126 1.254a16.142 16.142 0 012.633 3.762c.752 1.337 1.964 2.298 3.636 2.883 1.672.669 3.427.962 5.266.878 1.923-.083 3.761.125 5.517.627a50.042 50.042 0 0011.535-3.636 64.799 64.799 0 0010.658-6.27 15.848 15.848 0 011.755-1.253c.669-.502 1.212-1.003 1.63-1.505a5.297 5.297 0 001.003-1.379 19.71 19.71 0 011.003-1.38 38.18 38.18 0 012.257-3.259 30.776 30.776 0 012.633-3.01 35.077 35.077 0 011.63-5.265 333.947 333.947 0 012.006-5.14 36.702 36.702 0 001.63-5.142c.502-1.755.752-3.594.752-5.517 0-.417-.041-.877-.125-1.379 0-.501-.042-.961-.125-1.379.668-.92 1.003-1.922 1.003-3.01zM133.658 213.276c0 .669-.251 1.128-.752 1.379-.418.251-.502.836-.251 1.755-.669.084-1.254.418-1.756 1.004-.501.585-1.086.877-1.755.877-.418 0-.752-.209-1.003-.627-.167.585-.501 1.003-1.003 1.254a6.92 6.92 0 01-1.379.627c-.502.167-1.003.376-1.505.627-.501.251-.836.627-1.003 1.128h-.627c-1.003 0-1.797.418-2.382 1.254-.502.836-1.128 1.254-1.881 1.254-.251 0-.418-.042-.501-.125-.418.083-.585.334-.502.752.084.501-.042.836-.376 1.003h-.627c-2.173 0-4.388.46-6.645 1.379a98.991 98.991 0 00-6.896 3.135 90.09 90.09 0 01-7.022 3.26c-2.34 1.086-4.722 1.797-7.147 2.131-.501.502-1.128.878-1.88 1.129a8.958 8.958 0 01-2.257.752l-2.508.501a5.93 5.93 0 00-2.006 1.129 32.95 32.95 0 00-6.269 1.128c-2.09.585-4.18 1.129-6.27 1.63a49.087 49.087 0 01-6.268 1.38c-2.09.418-4.221.543-6.395.376a7.167 7.167 0 01-2.257 1.128c-.752.335-1.462.752-2.131 1.254a142.397 142.397 0 00-10.282-1.128 50.225 50.225 0 01-9.905-1.756c0-.251-.083-.418-.25-.501a4.723 4.723 0 00-.627-.251c-.168 0-.335-.084-.502-.251-.167-.083-.167-.292 0-.627-.752.251-1.421.376-2.006.376-.836 0-1.672-.209-2.508-.627a391.04 391.04 0 00-2.507-1.379 73.905 73.905 0 00-2.634-1.504c-.919-.418-1.922-.627-3.009-.627a41.798 41.798 0 01-1.88-2.006c-.502-.669-.878-1.505-1.129-2.508-.334-.084-.71-.084-1.128 0a3.66 3.66 0 01-.878.125c-.502 0-.752-.167-.752-.501-1.756-1.254-3.01-2.591-3.762-4.012a238.874 238.874 0 01-2.507-4.89 4.747 4.747 0 00-1.003-1.505 3.143 3.143 0 01-.753-1.254 9.32 9.32 0 01-.627-2.633c-.083-.919-.167-1.797-.25-2.633 0-.919-.126-1.797-.377-2.633A5.696 5.696 0 000 210.517a92.125 92.125 0 011.003-9.529 130.028 130.028 0 012.132-9.529c.334-1.421.71-2.8 1.128-4.137a59.85 59.85 0 001.128-4.138c.084-.501.21-.836.377-1.003.25-.251.46-.418.627-.502l.501-.376c.167-.167.293-.418.376-.752l1.003-4.263a53.008 53.008 0 012.633-8.024 27.41 27.41 0 014.389-7.147c.167-2.09.627-4.054 1.379-5.893a56.482 56.482 0 012.758-5.517 314.202 314.202 0 013.01-5.392 25.994 25.994 0 002.382-5.642l-.126-.251c0-.334.168-.501.502-.501.418-.084.71-.125.878-.125.083-1.338.376-2.466.877-3.386a39.707 39.707 0 011.756-2.758 18.062 18.062 0 001.755-2.633c.585-1.003.92-2.174 1.003-3.511 1.588-.919 2.926-2.048 4.012-3.385a72.29 72.29 0 003.26-4.263 58.15 58.15 0 013.386-4.263 12.974 12.974 0 014.263-3.386c.417-.501.543-1.212.376-2.131a68.557 68.557 0 018.024-5.141 48.827 48.827 0 007.774-5.266h4.514c1.086-.836 2.298-1.254 3.636-1.254 1.003 0 1.964.21 2.884.627a14.54 14.54 0 012.758 1.505c.92.501 1.839 1.045 2.758 1.63.92.501 1.84.877 2.759 1.128.92 1.254 1.546 2.717 1.88 4.389.419 1.588.837 3.092 1.254 4.513a28.267 28.267 0 00-1.379 7.022 67.104 67.104 0 01-.877 7.021 10.624 10.624 0 00-1.505 2.257 83.4 83.4 0 01-1.38 2.382 32.425 32.425 0 01-1.378 2.257c-.502.669-1.17 1.212-2.007 1.63-.668 2.424-1.713 4.347-3.134 5.768-1.421 1.421-2.8 3.093-4.138 5.015-1.254.836-2.591 1.254-4.012 1.254-1.17 0-2.215-.251-3.135-.752a12.112 12.112 0 01-2.507-2.132 15.483 15.483 0 01-1.881-2.884 26.948 26.948 0 01-1.003-3.134c.585-1.756 1.505-3.26 2.758-4.514l4.013-3.761a26.267 26.267 0 003.51-4.013c1.003-1.421 1.505-3.134 1.505-5.14 0-.168-.042-.335-.126-.502v-.501c0-.335.126-.627.377-.878.25-.251.501-.46.752-.627l.752-.627c.251-.251.376-.543.376-.878 0-.334-.167-.668-.501-1.003-3.177.251-5.6.794-7.272 1.63-1.589.836-2.842 1.756-3.762 2.759a39.846 39.846 0 00-2.507 3.009c-.67.919-1.672 1.588-3.01 2.006a4.865 4.865 0 01-1.128 1.755l-1.38 1.38a7.956 7.956 0 00-1.379 1.504c-.334.585-.543 1.296-.626 2.132h-2.257c-.335.752-.836 1.504-1.505 2.257a41.795 41.795 0 01-1.88 2.006 15.582 15.582 0 00-1.63 2.257c-.419.752-.544 1.588-.377 2.507-.92.335-1.63.878-2.131 1.63-.418.752-1.045 1.379-1.881 1.881v.752c0 .669-.125 1.296-.376 1.881-.25.585-.293 1.212-.126 1.881-1.003.919-1.755 2.089-2.256 3.51a39.26 39.26 0 01-1.38 3.762c-1.17.585-1.964 1.379-2.382 2.382-.418 1.003-.627 2.173-.627 3.511-1.254 1.254-2.382 2.716-3.385 4.388a60.848 60.848 0 00-2.759 5.141 103.138 103.138 0 00-2.131 5.391 59.545 59.545 0 01-2.131 5.141v3.636c-1.17 1.338-2.007 2.926-2.508 4.765-.418 1.755-1.087 3.343-2.006 4.764-.168.92-.251 1.839-.251 2.759.084.919.125 1.839.125 2.758a20.63 20.63 0 01-.25 3.135 11.45 11.45 0 01-.878 3.009c.334 1.254.585 2.758.752 4.514.167 1.671.46 3.385.878 5.14a20.494 20.494 0 001.755 4.639c.752 1.338 1.84 2.257 3.26 2.759.335 1.839 1.129 3.218 2.382 4.138a16.61 16.61 0 004.514 2.382 52.075 52.075 0 005.14 1.504c1.756.502 3.303 1.129 4.64 1.881.502-.251 1.087-.376 1.755-.376.67 0 1.254.084 1.756.251.585.167 1.212.334 1.88.501 1.17-.167 2.592-.25 4.264-.25 1.755 0 3.51-.084 5.266-.251 1.755-.084 3.385-.293 4.89-.627 1.504-.335 2.716-.961 3.636-1.881.585 0 .96.167 1.128.502.25.334.669.501 1.254.501s1.463-.167 2.633-.501a34.422 34.422 0 003.636-1.003 34.824 34.824 0 003.51-1.129c1.17-.418 2.007-.794 2.508-1.128.251.083.502.125.753.125h.877c1.17 0 2.257-.209 3.26-.627 1.003-.418 2.09-.543 3.26-.376a108.772 108.772 0 0111.66-5.015 202.424 202.424 0 0112.163-3.636c.501-.753 1.087-1.296 1.755-1.63a11.275 11.275 0 012.383-.753c.835-.25 1.671-.418 2.507-.501a19.72 19.72 0 002.382-.627c.502-.251.92-.543 1.254-.878a4.75 4.75 0 011.505-1.003 6.899 6.899 0 011.881-.501c.752-.084 1.462-.168 2.131-.251a11.325 11.325 0 002.006-.627 3.453 3.453 0 001.63-1.254 66.357 66.357 0 013.511 1.63 8.349 8.349 0 013.135 2.508l.125.376z" fill="#fff"/><path d="M208.01 211.27c-.251 1.17-.794 2.131-1.63 2.884-.752.668-1.672 1.212-2.759 1.63-1.086.417-2.215.71-3.385.877-1.087.084-2.09.126-3.009.126h-1.254a4.633 4.633 0 00-1.128-.126c-.418 0-.627.209-.627.627 0 .418-.209.711-.627.878a7.114 7.114 0 00-1.254-.376 6.35 6.35 0 00-1.254-.126c-.585 0-1.17.042-1.755.126a9.206 9.206 0 01-1.505.125c-.669 0-1.17-.084-1.504-.251l-.753-.501a4.962 4.962 0 00-.627-.753c-.167-.25-.459-.459-.877-.626-.585-.251-1.087-.293-1.505-.126-.334.167-.878-.083-1.63-.752a13.108 13.108 0 01-2.633-3.009 167.528 167.528 0 01-2.006-3.887 92.185 92.185 0 00-2.132-4.012 16.016 16.016 0 00-2.633-3.511h-1.003c-1.504 0-2.549.627-3.134 1.881a11.495 11.495 0 01-1.254-.878 5.305 5.305 0 00-1.379-1.003 63.382 63.382 0 01-6.019 1.504 31.881 31.881 0 01-6.269.627h-1.755a5.96 5.96 0 01-1.63-.25 9.822 9.822 0 00-2.257 1.253c-.669.418-1.421.627-2.257.627-.501 0-1.086-.167-1.755-.501-.502 0-.752.209-.752.627.083.418-.168.627-.753.627h-1.128c-1.17 0-2.341.041-3.511.125a43.96 43.96 0 01-3.385.125c-1.588 0-3.218-.209-4.89-.627a2.63 2.63 0 01-1.379.377c-.335.167-.586.459-.753.877l-.501 1.003c-.167.251-.418.502-.753.753-.25.167-.626.209-1.128.125-.167 1.003-.585 1.797-1.254 2.382-.668.585-1.003 1.463-1.003 2.633-.919.502-1.672 1.129-2.257 1.881a58.556 58.556 0 00-1.755 2.382 26.2 26.2 0 01-1.881 2.383c-.585.752-1.337 1.337-2.257 1.755-.418.502-.543 1.296-.376 2.382-.919.753-2.048 1.421-3.385 2.006-1.338.585-2.591.878-3.762.878-2.424 0-4.095-1.296-5.015-3.887 0-.836.084-1.713.251-2.633.083-1.003.251-1.922.501-2.758.251-.92.627-1.714 1.129-2.383.501-.752 1.212-1.295 2.131-1.63 0-.752-.25-1.253-.752-1.504-.502-.334-.711-.878-.627-1.63 2.257-1.087 4.221-2.508 5.893-4.263a46.485 46.485 0 004.514-5.517l4.263-6.018a32.836 32.836 0 014.764-5.392v-2.633c2.508-2.675 4.138-5.684 4.89-9.027.92-.168 1.505-.585 1.756-1.254.334-.669.501-1.463.501-2.382.418 0 .669-.168.752-.502.168-.418.544-.543 1.129-.376a42.066 42.066 0 012.508-5.517l2.758-5.015a44.066 44.066 0 002.382-5.392c.753-1.839 1.296-3.887 1.63-6.143 1.17-.084 1.797-.627 1.881-1.63.167-1.087.334-2.048.502-2.884a10.613 10.613 0 002.758-4.138 48.278 48.278 0 001.755-4.89 92.754 92.754 0 011.63-5.14c.669-1.756 1.588-3.302 2.759-4.64v-.376c0-.418-.168-.668-.502-.752-.334-.167-.501-.46-.501-.878.083-.083.125-.167.125-.251 1.003-.417 1.755-1.086 2.257-2.006.501-1.003 1.254-1.713 2.257-2.131 1.755 1.421 3.302 2.299 4.639 2.633 1.337.251 3.093.46 5.266.627 1.087 1.17 1.672 2.591 1.755 4.263a31.86 31.86 0 00.878 4.764 216.674 216.674 0 002.132 7.899 48.045 48.045 0 011.88 7.774 16.674 16.674 0 001.379 4.514 16.727 16.727 0 011.38 4.388c.167 1.171.167 2.508 0 4.013-.167 1.421 0 2.674.501 3.761l.878 2.006c.418.92.752 1.881 1.003 2.884.334 1.003.627 2.006.878 3.009a92.51 92.51 0 011.755 8.15c.585 2.842 1.463 5.433 2.633 7.774.418.836 1.045 1.421 1.881 1.755a15.84 15.84 0 003.009.752 40.71 40.71 0 003.135.126 36.703 36.703 0 012.758-.126h1.254c.501 0 1.003.084 1.504.251.335.669.502 1.254.502 1.756 0 1.003-.334 1.797-1.003 2.382-.669.585-1.003 1.254-1.003 2.006 0 .418.167.878.501 1.379-.334-.083-.836-.125-1.504-.125-1.923 0-3.804.334-5.643 1.003.669 1.421 1.547 2.633 2.634 3.636a57.688 57.688 0 003.636 2.633c.836-.669 1.713-1.003 2.633-1.003 1.003 0 1.922.251 2.758.752.92.418 1.881.627 2.884.627.752 0 1.296-.125 1.63-.376a10.952 10.952 0 011.63 2.382 9.629 9.629 0 001.63 2.132zm-39.245-20.061c-.167-1.421-.46-2.425-.878-3.01-.334-.668-.627-1.462-.877-2.382a24.973 24.973 0 01-.753-3.761 28.897 28.897 0 00-.501-3.887 157.337 157.337 0 00-2.006-8.526 56.203 56.203 0 00-2.633-8.276c.334-.501.501-.961.501-1.379v-.376c-.752-.836-1.295-1.839-1.63-3.009a203.467 203.467 0 00-1.003-3.636c-.251-1.254-.627-2.382-1.128-3.386-.418-1.086-1.129-1.964-2.132-2.633-.251.502-.376 1.087-.376 1.756 0 .585.042 1.128.125 1.63a5.1 5.1 0 01.251 1.63c-.836.418-1.463 1.086-1.88 2.006-.335.836-.92 1.504-1.756 2.006a35.138 35.138 0 01-2.884 7.648 149.477 149.477 0 01-4.012 7.022 195.184 195.184 0 00-3.887 7.147 38.091 38.091 0 00-3.009 7.397c-1.087.752-1.839 1.714-2.257 2.884a12.736 12.736 0 00-.501 3.511 6.274 6.274 0 002.507.752h2.884c.92 0 1.797.084 2.633.251.836.167 1.588.585 2.257 1.254a15.326 15.326 0 013.511-.627c1.337-.168 2.424-.544 3.26-1.129 1.671.585 3.469.878 5.391.878 1.003 0 1.964-.084 2.884-.251a29.13 29.13 0 002.884-.627c.752.167 1.337.46 1.755.878.418.334 1.045.46 1.881.376.418-.334.669-.669.752-1.003.084-.418.293-.794.627-1.128zM364.863 198.606c-.167 1.254-.626 2.215-1.379 2.884a13.888 13.888 0 01-2.382 1.881 6.35 6.35 0 00-1.254-.126 4.686 4.686 0 00-1.128-.125c-2.591-.084-5.057.251-7.398 1.003a39.002 39.002 0 01-7.021 1.63c-.836.167-1.63.251-2.383.251-.668-.084-1.379-.042-2.131.125-2.675.418-5.517.752-8.526 1.003-3.009.251-6.018.585-9.028 1.003-3.009.335-5.976.794-8.902 1.379-2.842.502-5.517 1.254-8.024 2.257l-.753-.501a1.2 1.2 0 00-.877-.376c-.836 0-1.63.125-2.383.376a5.235 5.235 0 01-2.256.251c-.836.501-1.756.877-2.759 1.128-.919.167-1.881.334-2.884.501-.919.084-1.839.251-2.758.502-.92.251-1.797.711-2.633 1.379-.669-.334-1.505-.501-2.508-.501-.919-.084-1.546-.418-1.88-1.003a19.275 19.275 0 01-6.144 1.755 40.57 40.57 0 01-6.395.251c-1.421-.084-3.051-.293-4.89-.627a44.429 44.429 0 01-5.516-1.379 41.429 41.429 0 01-5.141-2.257c-1.588-.92-2.8-2.006-3.636-3.26a8.274 8.274 0 01-1.254-2.759c-.251-1.003-.836-1.755-1.755-2.257.25-1.922.543-3.803.877-5.642.335-1.839.669-3.719 1.003-5.642a60.871 60.871 0 009.028-9.529 21.583 21.583 0 004.388-2.758c1.421-1.087 2.8-2.174 4.138-3.26 1.421-1.171 2.8-2.299 4.137-3.386a31.876 31.876 0 014.514-2.884c.251-.585.585-1.044 1.003-1.379a17.548 17.548 0 011.505-1.128c.501-.418.961-.836 1.379-1.254a4.352 4.352 0 00.878-1.755 29.053 29.053 0 007.648-6.646c2.173-2.674 3.594-5.684 4.263-9.027a10.524 10.524 0 00-4.89-2.257 37.967 37.967 0 00-5.517-.878 55.684 55.684 0 00-5.266 0 38.97 38.97 0 01-5.391-.125 26.113 26.113 0 01-5.768 1.128l-5.767.502a34.013 34.013 0 00-5.768.752c-1.839.334-3.636 1.003-5.391 2.006-.335 0-.669-.042-1.003-.125a2.77 2.77 0 00-.878-.126c-2.675-.083-5.183.46-7.523 1.63a554.15 554.15 0 00-6.896 3.26c-.167.335-.251.586-.251.753 0 .501.084 1.003.251 1.504.251.418.376.878.376 1.38-.084.083-.125.167-.125.25 0 .084-.042.167-.126.251a4.45 4.45 0 01-.376 1.128 8.799 8.799 0 01-.376 1.129c-.92 2.675-1.421 5.308-1.505 7.899a82.144 82.144 0 000 6.395 81.141 81.141 0 010 6.394c-.167 2.675-.585 5.183-1.253 7.523.417 2.006.794 4.138 1.128 6.395a89.073 89.073 0 001.254 6.519 79.596 79.596 0 001.755 6.395 30.988 30.988 0 002.884 5.768c-.084.167-.042.292.125.376.168.083.335.125.502.125h1.003c.418 0 .585.167.501.502.168.25.293.501.377.752.083.167.25.334.501.501.167.251.167.586 0 1.004-.083 1.671-.501 3.218-1.254 4.639a12.465 12.465 0 00-1.379 4.639c-1.003.251-1.922.376-2.758.376-1.421-.084-2.675-.502-3.762-1.254a14.13 14.13 0 01-3.009-2.508 85.317 85.317 0 01-2.633-3.009 14.374 14.374 0 00-2.758-2.758 189.748 189.748 0 01-1.756-7.774c-.501-2.842-1.379-5.266-2.633-7.272.335-.752.502-1.672.502-2.758a15.983 15.983 0 00-.502-4.89 16.897 16.897 0 01-.251-5.016c0-.919.084-1.839.251-2.758.251-.92.418-1.839.502-2.759.083-1.421-.084-2.8-.502-4.137a13.658 13.658 0 01-.376-4.138c.084-.668.209-1.295.376-1.881a6.03 6.03 0 011.003-1.755c-.418-1.003-.543-1.964-.376-2.884.084-1.421.251-2.758.502-4.012.25-1.254.418-2.508.501-3.761 0-.669-.042-1.296-.125-1.881a12.544 12.544 0 00-.376-1.881l-1.129-.376c-.501 0-1.003.125-1.504.376a5.836 5.836 0 00-1.129.878l-.878.877c-.25.168-.501.251-.752.251h-.627a1.118 1.118 0 00-.501-.125c-.167 0-.502.167-1.003.501-.418.335-.962.711-1.63 1.129-.585.334-1.171.71-1.756 1.128-.585.335-1.045.544-1.379.627-.919-.167-1.672-.46-2.257-.877a22.44 22.44 0 00-1.504-1.38 6.493 6.493 0 00-1.38-1.254c-.501-.417-1.128-.585-1.88-.501a3.592 3.592 0 01-.376-1.63 6.143 6.143 0 010-1.755v-2.006a7.231 7.231 0 012.382-2.634 13.956 13.956 0 013.009-1.88l3.26-1.505a13.922 13.922 0 003.009-1.881h1.129c1.504.084 2.8-.209 3.886-.877a22.54 22.54 0 003.26-2.257l3.01-2.759a12.726 12.726 0 013.51-2.131c.92.418 1.881.794 2.884 1.128 1.003.251 2.048.418 3.135.502 1.086 0 2.215-.167 3.385-.502 1.17-.334 2.09-.961 2.758-1.88.418.167.753.292 1.003.376h1.129a9.753 9.753 0 003.761-.502 28.966 28.966 0 003.636-1.755c1.672.083 3.302 0 4.89-.251 1.672-.334 3.302-.669 4.89-1.003 1.672-.334 3.302-.627 4.89-.878a20.36 20.36 0 015.016-.376 33.253 33.253 0 008.149-.752 29.596 29.596 0 018.15-.627c1.923.084 3.804.251 5.643.502 1.922.167 3.845.209 5.767.125 1.087.501 2.048.961 2.884 1.379.919.334 2.048.418 3.385.251 2.675 2.257 5.099 4.89 7.272 7.899v2.132a21.568 21.568 0 01-1.003 5.642 49.834 49.834 0 01-2.131 5.517 75 75 0 01-2.508 5.266 144.621 144.621 0 00-2.633 5.015 2540.18 2540.18 0 01-16.3 14.67 339.342 339.342 0 01-16.801 14.043 8.953 8.953 0 01-.752 2.256 8.84 8.84 0 00-.502 2.132c0 .418.042.752.126 1.003.585.167 1.086.502 1.504 1.003.502.418.669 1.003.502 1.755h1.128c.418 0 .627.168.627.502l2.006.125c3.177.168 6.353.084 9.529-.25 3.177-.335 6.353-.711 9.529-1.129 3.26-.418 6.479-.794 9.655-1.128a91.533 91.533 0 019.529-.753c.752-.25 1.546-.459 2.382-.627a5.507 5.507 0 002.257-1.003h.376c.585 0 1.003.168 1.254.502.335.334.794.543 1.379.627.418 0 .836-.084 1.254-.251a9.975 9.975 0 011.505-.376 17.458 17.458 0 013.636-.627 56.11 56.11 0 003.887-.376c4.848-.418 9.654-.669 14.419-.752a76.2 76.2 0 0014.293-1.881c.418.585 1.003 1.003 1.756 1.254.752.167 1.546.376 2.382.627.836.167 1.588.376 2.257.627.752.25 1.254.752 1.504 1.504z" fill="#fff"/><path d="M398.09 131.15c0 1.421-.084 2.8-.251 4.138-.083 1.254-.334 2.591-.752 4.012a9.78 9.78 0 00-2.006 2.132l-1.756 2.382a45.56 45.56 0 01-1.88 2.257c-.669.668-1.505 1.212-2.508 1.63a87.258 87.258 0 01-3.135 10.657 60.71 60.71 0 00-2.633 10.532c-1.003 1.839-1.797 3.845-2.382 6.019a274.34 274.34 0 01-1.881 6.645 68.503 68.503 0 01-2.006 6.269 18.258 18.258 0 01-3.134 5.392 155.77 155.77 0 00-2.006 6.52c-.669 2.256-1.798 4.137-3.386 5.642.084.167.126.418.126.752a5.94 5.94 0 01-.753 2.884c-.501.836-.752 1.713-.752 2.633a30.1 30.1 0 00-3.887 3.511 158.718 158.718 0 01-3.636 4.012 26.285 26.285 0 01-4.012 3.511 12.086 12.086 0 01-4.639 2.006 21.154 21.154 0 01-3.26-2.884 13.404 13.404 0 00-3.511-2.508 85.708 85.708 0 01-1.254-11.033 94.175 94.175 0 00-.878-10.909 29 29 0 00-1.63-6.018 17.839 17.839 0 01-1.003-5.893v-1.254c.084-.501.168-.961.251-1.379-.836-.92-1.379-2.048-1.63-3.385a74.484 74.484 0 01-.627-4.263 37 37 0 00-.752-4.389c-.251-1.421-.752-2.633-1.505-3.636.335-.334.502-.794.502-1.379 0-.418-.084-.836-.251-1.254a6.425 6.425 0 01-.125-1.254c0-.334.125-.71.376-1.128-.669-.836-1.128-1.588-1.379-2.257a22.858 22.858 0 01-.376-2.132l-.251-2.257c0-.752-.084-1.546-.251-2.382-.167-.585-.46-1.003-.878-1.254-.334-.334-.501-.585-.501-.752 0-.418.167-.752.501-1.003a26.97 26.97 0 01-2.883-5.266 81.035 81.035 0 00-2.508-5.517c.084-.919.418-1.63 1.003-2.131.585-.502 1.003-1.171 1.254-2.007h4.012a103.898 103.898 0 018.401 22.444 362.687 362.687 0 015.266 23.321c.418 2.257.794 4.514 1.128 6.771a253.93 253.93 0 001.379 6.896c.168.501.418 1.045.753 1.63.334.585.501 1.17.501 1.755 0 .502-.125 1.003-.376 1.505.502.334.878.794 1.129 1.379a7.38 7.38 0 01.752 1.881c.251.585.46 1.212.627 1.88.167.586.418 1.129.752 1.63 1.003-.083 1.881-.543 2.633-1.379a14.715 14.715 0 002.006-2.884 44.04 44.04 0 001.756-3.385c.585-1.17 1.253-2.09 2.006-2.758.083-.92.25-1.797.501-2.633.335-.92.502-1.839.502-2.759a110.8 110.8 0 002.257-4.012c.668-1.254 1.086-2.758 1.253-4.514.418-.334.669-.585.753-.752.083-.251.459-.293 1.128-.125 0-2.257.335-4.431 1.003-6.52a27.97 27.97 0 013.009-6.144 28.211 28.211 0 011.129-5.768 71.538 71.538 0 012.257-5.893c.251-.585.585-1.254 1.003-2.006.418-.836.627-1.588.627-2.257 0-.334-.084-.627-.251-.877a4.107 4.107 0 01-.125-1.003c0-.669.25-1.254.752-1.756.501-.501.961-1.003 1.379-1.504 0-1.923.209-3.845.627-5.768.418-1.923 1.254-3.594 2.508-5.015a85.188 85.188 0 011.63-8.276 37.22 37.22 0 012.883-7.899h4.514c0-1.588.711-2.382 2.132-2.382.836 0 1.755.209 2.758.627.669 1.839 1.129 3.929 1.379 6.269.335 2.257.502 4.347.502 6.269zM487.237 211.27c-.251 1.17-.794 2.131-1.63 2.884-.752.668-1.672 1.212-2.758 1.63-1.087.417-2.216.71-3.386.877a39.218 39.218 0 01-3.009.126H475.2a4.633 4.633 0 00-1.128-.126c-.418 0-.627.209-.627.627 0 .418-.209.711-.627.878a7.114 7.114 0 00-1.254-.376 6.35 6.35 0 00-1.254-.126c-.585 0-1.17.042-1.755.126a9.206 9.206 0 01-1.505.125c-.668 0-1.17-.084-1.504-.251l-.753-.501a5.012 5.012 0 00-.626-.753c-.168-.25-.46-.459-.878-.626-.585-.251-1.087-.293-1.505-.126-.334.167-.877-.083-1.63-.752a13.131 13.131 0 01-2.633-3.009 171.532 171.532 0 01-2.006-3.887 93.26 93.26 0 00-2.131-4.012 16.079 16.079 0 00-2.633-3.511h-1.003c-1.505 0-2.55.627-3.135 1.881a11.495 11.495 0 01-1.254-.878 5.305 5.305 0 00-1.379-1.003 63.437 63.437 0 01-6.018 1.504c-2.09.418-4.18.627-6.27.627h-1.755a5.965 5.965 0 01-1.63-.25 9.822 9.822 0 00-2.257 1.253c-.668.418-1.421.627-2.257.627-.501 0-1.086-.167-1.755-.501-.502 0-.752.209-.752.627.083.418-.167.627-.753.627h-1.128c-1.17 0-2.341.041-3.511.125a43.942 43.942 0 01-3.385.125c-1.588 0-3.218-.209-4.89-.627a2.63 2.63 0 01-1.379.377c-.335.167-.585.459-.753.877l-.501 1.003c-.167.251-.418.502-.752.753-.251.167-.627.209-1.129.125-.167 1.003-.585 1.797-1.254 2.382-.668.585-1.003 1.463-1.003 2.633-.919.502-1.671 1.129-2.257 1.881a58.556 58.556 0 00-1.755 2.382 26.2 26.2 0 01-1.881 2.383c-.585.752-1.337 1.337-2.257 1.755-.418.502-.543 1.296-.376 2.382-.919.753-2.048 1.421-3.385 2.006-1.337.585-2.591.878-3.762.878-2.424 0-4.095-1.296-5.015-3.887 0-.836.084-1.713.251-2.633.084-1.003.251-1.922.501-2.758.251-.92.627-1.714 1.129-2.383.501-.752 1.212-1.295 2.131-1.63 0-.752-.25-1.253-.752-1.504-.501-.334-.71-.878-.627-1.63 2.257-1.087 4.221-2.508 5.893-4.263a46.387 46.387 0 004.514-5.517l4.263-6.018a32.796 32.796 0 014.765-5.392v-2.633c2.507-2.675 4.137-5.684 4.889-9.027.92-.168 1.505-.585 1.756-1.254.334-.669.501-1.463.501-2.382.418 0 .669-.168.753-.502.167-.418.543-.543 1.128-.376a42.066 42.066 0 012.508-5.517l2.758-5.015a43.914 43.914 0 002.382-5.392c.753-1.839 1.296-3.887 1.63-6.143 1.171-.084 1.798-.627 1.881-1.63.167-1.087.334-2.048.502-2.884a10.613 10.613 0 002.758-4.138 48.278 48.278 0 001.755-4.89 92.754 92.754 0 011.63-5.14c.669-1.756 1.589-3.302 2.759-4.64v-.376c0-.418-.167-.668-.502-.752-.334-.167-.501-.46-.501-.878.083-.083.125-.167.125-.251 1.003-.417 1.756-1.086 2.257-2.006.502-1.003 1.254-1.713 2.257-2.131 1.755 1.421 3.302 2.299 4.639 2.633 1.337.251 3.093.46 5.266.627 1.087 1.17 1.672 2.591 1.756 4.263a31.73 31.73 0 00.877 4.764 216.674 216.674 0 002.132 7.899 47.94 47.94 0 011.88 7.774 16.64 16.64 0 001.38 4.514 16.762 16.762 0 011.379 4.388c.167 1.171.167 2.508 0 4.013-.167 1.421 0 2.674.501 3.761l.878 2.006c.418.92.752 1.881 1.003 2.884.334 1.003.627 2.006.878 3.009a91.795 91.795 0 011.755 8.15c.585 2.842 1.463 5.433 2.633 7.774.418.836 1.045 1.421 1.881 1.755a15.84 15.84 0 003.009.752 40.73 40.73 0 003.135.126 36.703 36.703 0 012.758-.126h1.254c.501 0 1.003.084 1.505.251.334.669.501 1.254.501 1.756 0 1.003-.334 1.797-1.003 2.382-.669.585-1.003 1.254-1.003 2.006 0 .418.167.878.501 1.379-.334-.083-.835-.125-1.504-.125-1.923 0-3.803.334-5.642 1.003.668 1.421 1.546 2.633 2.633 3.636a57.688 57.688 0 003.636 2.633c.836-.669 1.713-1.003 2.633-1.003 1.003 0 1.922.251 2.758.752.92.418 1.881.627 2.884.627.752 0 1.296-.125 1.63-.376a10.952 10.952 0 011.63 2.382 9.629 9.629 0 001.63 2.132zm-39.245-20.061c-.167-1.421-.46-2.425-.877-3.01-.335-.668-.627-1.462-.878-2.382a24.851 24.851 0 01-.752-3.761 29.058 29.058 0 00-.502-3.887 157.337 157.337 0 00-2.006-8.526 56.203 56.203 0 00-2.633-8.276c.334-.501.501-.961.501-1.379v-.376c-.752-.836-1.295-1.839-1.63-3.009a203.467 203.467 0 00-1.003-3.636c-.25-1.254-.627-2.382-1.128-3.386-.418-1.086-1.129-1.964-2.132-2.633-.25.502-.376 1.087-.376 1.756 0 .585.042 1.128.126 1.63.167.501.25 1.045.25 1.63-.835.418-1.462 1.086-1.88 2.006-.335.836-.92 1.504-1.756 2.006a35.087 35.087 0 01-2.884 7.648 149.477 149.477 0 01-4.012 7.022 195.184 195.184 0 00-3.887 7.147 38.154 38.154 0 00-3.009 7.397c-1.086.752-1.839 1.714-2.257 2.884a12.736 12.736 0 00-.501 3.511 6.274 6.274 0 002.507.752h2.884c.92 0 1.797.084 2.633.251.836.167 1.588.585 2.257 1.254a15.326 15.326 0 013.511-.627c1.337-.168 2.424-.544 3.26-1.129 1.672.585 3.469.878 5.391.878 1.003 0 1.965-.084 2.884-.251a29.13 29.13 0 002.884-.627c.752.167 1.337.46 1.755.878.418.334 1.045.46 1.881.376.418-.334.669-.669.752-1.003.084-.418.293-.794.627-1.128zM554.567 188.199c0 .92-.334 1.63-1.003 2.132-.668.418-1.003 1.003-1.003 1.755 0 .335.167.753.502 1.254-1.17 0-1.964.376-2.382 1.128a35.262 35.262 0 00-1.254 2.508h-1.63c-.418 0-.753.084-1.003.251-.251.167-.502.418-.753.752-.167.251-.418.669-.752 1.254a19.18 19.18 0 00-4.639 1.63 52.569 52.569 0 00-4.263 2.257 245.9 245.9 0 00-4.138 2.382 28.95 28.95 0 01-4.388 1.881c-.752 1.254-1.839 2.257-3.26 3.009h-.376c-.418.084-.794.042-1.129-.125-.25-.251-.585-.376-1.003-.376-.25 0-.418.041-.501.125-2.508 1.672-5.308 2.508-8.401 2.508-.836 0-1.63-.042-2.382-.126a10.963 10.963 0 00-2.382-.251c-.251 0-.418.084-.502.251l-.251.502a1.952 1.952 0 01-.376.501c-.083.167-.376.251-.878.251-.919 0-1.838-.125-2.758-.376a6.671 6.671 0 00-2.884-.126c-1.922-1.086-3.427-2.131-4.513-3.134-1.087-1.003-2.09-2.508-3.01-4.514-.418-.919-1.003-1.797-1.755-2.633a8.887 8.887 0 01-1.505-2.758c-.083-.335-.209-.92-.376-1.756-.167-.919-.334-1.88-.501-2.883a195.881 195.881 0 00-.502-2.884c-.083-.92-.125-1.547-.125-1.881 0-1.003.042-1.964.125-2.884l.502-3.009a92.192 92.192 0 001.003-9.529c.251-3.26.961-6.395 2.131-9.404a14.743 14.743 0 01-.251-2.633v-2.758c0-1.588-.208-2.926-.626-4.012.668-1.087 1.003-2.299 1.003-3.637 0-1.504-.627-2.382-1.881-2.633v-.376c0-1.755-.585-3.134-1.755-4.137 0-2.926.71-5.099 2.131-6.52 1.505-1.505 3.469-2.8 5.893-3.887.334-.502.46-.92.376-1.254.585.167 1.129.334 1.63.502a4.74 4.74 0 001.505.25c.836 0 1.588-.125 2.257-.376.25 1.003.877 1.63 1.88 1.881 1.087.167 1.965.418 2.633.752v1.63c0 2.591.627 5.057 1.881 7.398a6.29 6.29 0 00-.627 2.131 19.502 19.502 0 00-.125 2.132c0 1.003.042 2.006.125 3.009.084 1.003.126 1.964.126 2.884 0 1.003-.126 2.006-.377 3.009-.167 1.003-.626 1.881-1.379 2.633-.083 1.087-.167 2.34-.251 3.761a35.45 35.45 0 01-.25 4.138 22.537 22.537 0 01-.627 4.138c-.335 1.337-.836 2.424-1.505 3.26-.083 1.253-.167 2.549-.251 3.887v3.636c0 1.839.084 4.012.251 6.52.251 2.507.836 4.597 1.756 6.269.418.668 1.212 1.17 2.382 1.504 1.254.335 2.257.502 3.009.502.92 0 1.839-.126 2.758-.376 1.004-.335 1.714-.878 2.132-1.63.501.083.836.334 1.003.752.167.418.46.752.878 1.003a511.35 511.35 0 0114.293-5.768 131.937 131.937 0 0014.043-6.394 4.707 4.707 0 002.132.501c.836 0 1.671-.083 2.507-.25a12.7 12.7 0 012.508-.251h.878c.167.501.25.878.25 1.128z" fill="#fff"/><path d="M631.929 161.869a68.24 68.24 0 01-1.004 2.382 11.018 11.018 0 00-.752 2.508 7.52 7.52 0 01-2.006 1.003c-.669.167-1.379.376-2.131.627a9.222 9.222 0 00-2.132.752c-.585.251-1.045.669-1.379 1.254-.251 1.254-.376 2.424-.376 3.511 0 1.421.25 2.633.752 3.636a10.961 10.961 0 00-.502 2.382 24.16 24.16 0 00-.125 2.382c0 2.759.334 5.517 1.003 8.276a38.284 38.284 0 011.129 8.149c0 .418-.042.878-.126 1.38a8.496 8.496 0 00-.125 1.379c0 1.755.669 2.926 2.006 3.511-.251.418-.376.794-.376 1.128 0 .669.083 1.254.251 1.755.167.502.209 1.045.125 1.63a27.2 27.2 0 001.254 2.257c.418.585.71 1.338.877 2.257a16.829 16.829 0 01-2.131 3.26c-.836.92-1.421 2.09-1.755 3.511a4.648 4.648 0 00-1.129-.126c-.585 0-1.045.126-1.379.377a4.37 4.37 0 00-.878.877 4.908 4.908 0 01-.627 1.129 2.03 2.03 0 01-1.003.877h-.376c-.418.084-.794.042-1.128-.125a2.359 2.359 0 00-.753-.125c-.167 0-.501.083-1.003.25-.668-.835-1.128-1.839-1.379-3.009a14.436 14.436 0 01-.376-3.26c0-1.17.167-2.215.501-3.134-.919-.753-1.504-1.881-1.755-3.386-.167-1.504-.376-2.758-.627-3.761a101.904 101.904 0 00-2.382-9.028 40.792 40.792 0 01-1.505-9.027 47.905 47.905 0 01-.125-3.386v-6.519c0-1.087.042-2.132.125-3.135 0-.752.042-1.463.126-2.132.167-.752.25-1.504.25-2.256 0-1.003-.334-1.965-1.003-2.884-5.934.251-11.577 1.337-16.926 3.26-5.266 1.839-10.532 4.054-15.798 6.645a44.574 44.574 0 00-.627 5.642c-.084 1.839-.126 3.72-.126 5.642v5.517c0 2.09.084 3.845.251 5.266.418 2.424 1.63 4.305 3.636 5.643 2.09 1.253 4.18 2.215 6.269 2.883-.083 1.254-.334 2.341-.752 3.26-.418.836-.961 1.63-1.63 2.383a22.854 22.854 0 01-2.006 2.006 28.588 28.588 0 00-2.257 2.257 6.986 6.986 0 00-2.006-.878 8.773 8.773 0 00-2.132-.251l-2.257-.251a10.884 10.884 0 01-2.256-.501l-2.759-3.762a59.24 59.24 0 00-3.009-3.761v-1.129c0-2.256-.418-4.43-1.254-6.519a34.976 34.976 0 01-1.881-6.395 10.96 10.96 0 00.502-2.257c.084-.752.125-1.546.125-2.382a46.74 46.74 0 00-.25-4.89 30.234 30.234 0 01.125-4.765h-.627c-.752 0-1.546.209-2.382.627-.836.335-1.672.753-2.508 1.254l-2.257 1.254c-.668.334-1.254.502-1.755.502a2.35 2.35 0 01-.752-.126 2.8 2.8 0 00-.878-.125c-.418 0-.92.167-1.505.501-.585.335-1.212.711-1.88 1.129l-2.257 1.003a5.526 5.526 0 01-2.257.501c-1.17 0-2.341-.501-3.511-1.504-.167-.669-.209-1.296-.125-1.881v-1.881c0-.668-.126-1.379-.376-2.131.585-1.087 1.379-1.923 2.382-2.508a17.644 17.644 0 013.009-1.755 36.758 36.758 0 013.135-1.63 9.095 9.095 0 002.758-2.257h.752c1.171 0 2.215-.251 3.135-.752 1.003-.502 2.131-.711 3.385-.627.418-.167.711-.794.878-1.881l.501.125c1.839 0 3.469-.627 4.89-1.88a243.443 243.443 0 002.257-15.673c.585-5.266.878-10.532.878-15.798 0-.502-.167-1.004-.502-1.505a7.785 7.785 0 01-.25-1.881v-1.881c0-.919.041-1.88.125-2.883a12.93 12.93 0 01.627-3.01c.836-.501 1.713-.752 2.633-.752 1.087 0 2.131.167 3.134.502 1.087.25 2.132.459 3.135.627.752.752 1.296 1.588 1.63 2.507.418.92.669 1.881.752 2.884.084.92.084 1.881 0 2.884v2.758c0 1.839.209 3.636.627 5.392a22.15 22.15 0 01.627 5.14c0 .418-.167.753-.501 1.004-.251.167-.377.71-.377 1.629 0 .92.084 1.881.251 2.884.167 1.003.251 2.006.251 3.009a14.07 14.07 0 01-.502 3.637 75.856 75.856 0 00-.877 3.636 209.264 209.264 0 0015.422-1.881c5.266-.836 10.281-2.173 15.046-4.012.083-.167.125-.418.125-.753 0-.501-.042-1.003-.125-1.504a9.888 9.888 0 01-.126-1.63c0-1.003.335-1.797 1.003-2.382a67.067 67.067 0 01-.877-7.022 98.612 98.612 0 01-.251-7.021v-7.147c0-2.341-.042-4.681-.125-7.022a3.96 3.96 0 012.131-.626c.92 0 1.755.25 2.508.752.836.418 1.797.627 2.884.627.752 0 1.379-.126 1.88-.376.92.835 1.547 1.922 1.881 3.26.334 1.337.627 2.716.878 4.137l.752 4.263c.334 1.338.961 2.424 1.881 3.26l.125.376c0 .335-.167.585-.501.753-.335.167-.502.501-.502 1.003v.501c.334 1.338.585 2.717.752 4.138.168 1.421.293 2.884.377 4.388.167 1.421.376 2.842.626 4.263a11.98 11.98 0 001.38 3.762c.418-.084.961-.126 1.63-.126 1.671 0 2.967.585 3.886 1.756a24.6 24.6 0 012.634 3.385zM719.32 147.826a5.313 5.313 0 00-.877 2.508 27.756 27.756 0 00-.126 2.507v3.01c.084.919.126 1.839.126 2.758v1.881a7.945 7.945 0 01-.753 1.755 7.94 7.94 0 00-.752 1.755c-1.17 3.093-1.755 6.186-1.755 9.279v.251a44.216 44.216 0 01-1.254 2.758l-1.003 2.508a11.01 11.01 0 00-.753 2.507c-.167.836-.209 1.839-.125 3.009a31.91 31.91 0 01-4.639 8.025 167.374 167.374 0 00-5.642 7.272 21.22 21.22 0 00-4.89 2.633 41.732 41.732 0 00-4.138 3.636 84.247 84.247 0 00-7.648 2.884 24.194 24.194 0 00-6.771 4.388 47.04 47.04 0 00-4.764.753 23.143 23.143 0 00-4.64 1.504h-1.504c-.752 0-1.296-.167-1.63-.501a12.763 12.763 0 01-3.385 1.254c-1.171.167-2.341.25-3.511.25a40.89 40.89 0 01-4.514-.25 470.579 470.579 0 00-4.388-.753c-.836-1.17-2.006-2.048-3.511-2.633a97.372 97.372 0 01-4.012-1.88c-2.424-3.344-4.18-6.562-5.266-9.655a279.794 279.794 0 01-3.386-10.657c.167-1.171.46-2.299.878-3.386.418-1.17.585-2.424.501-3.761 1.505-4.347 3.469-8.275 5.893-11.786a81.886 81.886 0 018.526-10.282c0-.501.084-.919.251-1.253.251-.335.293-.836.126-1.505.083.084.25.125.501.125.669 0 1.087-.167 1.254-.501.167-.418.209-.878.125-1.379a44.907 44.907 0 008.15-6.646 35.14 35.14 0 018.526-6.269 4.159 4.159 0 011.254-1.88 5.585 5.585 0 001.379-1.756c2.675-.752 5.099-1.881 7.272-3.385a51.117 51.117 0 016.897-4.012c1.337-.753 2.591-1.254 3.761-1.505 1.254-.334 2.591-.669 4.012-1.003.502-.167.962-.293 1.379-.376a7.017 7.017 0 011.38-.126c1.504 0 2.967.293 4.388.878a13.08 13.08 0 004.388.752h1.004l1.003-.25c1.421 1.755 3.218 3.092 5.391 4.012.502 1.254 1.087 2.34 1.755 3.26l2.257 2.758a14.672 14.672 0 012.006 2.884c.669 1.003 1.087 2.215 1.254 3.636zm-12.538 6.52c0-.418-.042-.794-.125-1.128a12.066 12.066 0 01-2.383-1.003c-.752-.418-1.588-.627-2.507-.627-.585 0-1.171.125-1.756.376-.083-.585-.334-1.003-.752-1.254-.334-.251-.752-.46-1.254-.627a3.908 3.908 0 00-1.379-.502 3.321 3.321 0 01-1.128-.752 21.032 21.032 0 00-.878-2.006c-.251-.752-.752-1.296-1.505-1.63a10.055 10.055 0 01-2.633 1.881 123.15 123.15 0 01-3.134 1.254 25.36 25.36 0 00-3.01 1.504 9.695 9.695 0 00-2.382 2.132h-2.257a5.232 5.232 0 01-2.131 2.131c-.92.418-1.714 1.045-2.382 1.881a18.431 18.431 0 00-3.762 2.508 53.146 53.146 0 00-3.26 3.009 113.923 113.923 0 00-3.26 3.134 27.853 27.853 0 01-3.26 3.01c-1.086 2.34-2.298 4.388-3.636 6.143a113.463 113.463 0 00-3.636 5.141 37.087 37.087 0 00-2.884 5.768c-.752 2.006-1.128 4.513-1.128 7.523v1.253c0 .418.042.836.125 1.254a16.096 16.096 0 012.633 3.762c.752 1.337 1.965 2.298 3.636 2.884 1.672.668 3.427.961 5.266.877 1.923-.083 3.762.126 5.517.627a50.031 50.031 0 0011.535-3.636 64.777 64.777 0 0010.658-6.269 15.956 15.956 0 011.755-1.254c.669-.501 1.212-1.003 1.63-1.505a5.249 5.249 0 001.003-1.379c.335-.501.669-.961 1.003-1.379a38.18 38.18 0 012.257-3.26 30.813 30.813 0 012.633-3.009 35.196 35.196 0 011.63-5.266 342.884 342.884 0 012.006-5.141 36.685 36.685 0 001.63-5.141c.502-1.755.753-3.594.753-5.516 0-.418-.042-.878-.126-1.38 0-.501-.042-.961-.125-1.379.669-.919 1.003-1.922 1.003-3.009z" fill="#fff"/></svg>